<?xml version="1.0" encoding="utf-8"?>
<!-- Generator: Adobe Illustrator 12.0.0, SVG Export Plug-In . SVG Version: 6.00 Build 51448)  -->
<!DOCTYPE svg PUBLIC "-//W3C//DTD SVG 1.1//EN" "http://www.w3.org/Graphics/SVG/1.1/DTD/svg11.dtd" [
	<!ENTITY ns_svg "http://www.w3.org/2000/svg">
	<!ENTITY ns_xlink "http://www.w3.org/1999/xlink">
]>
<svg  version="1.1" id="Calque_1" xmlns="&ns_svg;" xmlns:xlink="&ns_xlink;" width="589.299" height="582.827"
	 viewBox="0 0 589.299 582.827" overflow="visible" enable-background="new 0 0 589.299 582.827" xml:space="preserve">
<path fill="none" stroke="#C35E97" stroke-width="3" stroke-linecap="round" d="M318.999,491.999
	c-1.549,0.395-26.326,6.111-32.908,23.977c-12.404,33.669,31.969,65.817,150.91,65.347c105.786-0.419,167.834-34.319,146.678-70.048
	c-13.354-22.553-47.482-27.268-47.482-27.268"/>
<path fill="none" stroke="#C35E97" stroke-width="3" stroke-linecap="round" d="M346.258,499.156c0,0-47.474,6.946-39.063,28.409
	c8.426,21.501,55.701,34.387,126.516,34.012c41.48-0.22,129.774-8.72,128.813-39.021c-0.571-18.019-26.797-28.207-50.035-29.943"/>
<path fill="none" stroke="#C35E97" stroke-width="3" stroke-linecap="round" d="M371.851,497.95c0,0-58.225,16.983-29.814,31.188
	c28.408,14.204,98.256,16.925,151.617,6.796c49.578-9.411,55.344-30.271-19.043-36.884"/>
<linearGradient id="XMLID_13_" gradientUnits="userSpaceOnUse" x1="286.5981" y1="432.0205" x2="442.8486" y2="432.0205">
	<stop  offset="0" style="stop-color:#CCC0C8"/>
	<stop  offset="0.2249" style="stop-color:#CABEC7"/>
	<stop  offset="0.3882" style="stop-color:#C5B6C1"/>
	<stop  offset="0.5321" style="stop-color:#BCA8B7"/>
	<stop  offset="0.6646" style="stop-color:#B195AA"/>
	<stop  offset="0.7894" style="stop-color:#A37D98"/>
	<stop  offset="0.9069" style="stop-color:#946082"/>
	<stop  offset="1" style="stop-color:#864670"/>
</linearGradient>
<path fill="url(#XMLID_13_)" d="M395.974,434.526c22.633,24.237,46.875,60.369,46.875,60.369
	c-2.841-78.836-75.994-108.665-91.619-116.478s-64.631-14.915-64.631-14.915s7.813-2.841,17.756,40.483
	c16.233,70.732,72.443,96.591,72.443,96.591s-59.051-53.354-39.063-105.824C337.735,394.753,368.251,404.837,395.974,434.526z"/>
<path fill="#C35E97" d="M375.444,484.313c0,0-24.794-14.288-23.113-50.01c0.118-2.519,11.15,3.734,15.549,10.087
	c3.783,5.462,7.627,11.806,8.404,19.331C377.546,475.908,375.444,484.313,375.444,484.313z"/>
<path fill="#C35E97" d="M419.839,416.948c0,0-7.144-16.811-3.781-26.055c3.361-9.245,3.361-9.245,3.361-9.245
	s9.666,13.027,8.405,20.592S419.839,416.948,419.839,416.948z"/>
<path fill="#C35E97" d="M451.358,459.394c0,0,3.361-16.389,15.549-25.635s12.188-9.246,12.188-9.246s2.102,2.102,1.261,7.985
	s-7.144,13.869-15.97,19.331C455.561,457.292,451.358,459.394,451.358,459.394z"/>
<g>
	
		<radialGradient id="XMLID_14_" cx="211.9116" cy="245.4429" r="216.4095" gradientTransform="matrix(0.9555 0.295 -0.295 0.9555 91.7415 -48.011)" gradientUnits="userSpaceOnUse">
		<stop  offset="0" style="stop-color:#CCC0C8"/>
		<stop  offset="0.2249" style="stop-color:#CABEC7"/>
		<stop  offset="0.3882" style="stop-color:#C5B6C1"/>
		<stop  offset="0.5321" style="stop-color:#BCA8B7"/>
		<stop  offset="0.6646" style="stop-color:#B195AA"/>
		<stop  offset="0.7894" style="stop-color:#A37D98"/>
		<stop  offset="0.9069" style="stop-color:#946082"/>
		<stop  offset="1" style="stop-color:#864670"/>
	</radialGradient>
	<path fill="url(#XMLID_14_)" d="M230.536,403.501c0,0-7.104,42.928,9.462,62.932c14.331,17.309,24.409-58.537,17.319-80.408
		c0,0,33.99-23.508,42.216-50.117l4.387-0.834c0,0,15.409-0.338,22.231-23.982c0,0,1.469-0.033,9.477-3.146
		c0,0,52.924-17.799,66.492-53.224c12.486-32.597,2.943-46.074,2.943-46.074s-7.732-14.176-14.197,6.744
		c-3.51,11.351,0.293,13.352,3.234,34.559c0.951,6.877-16.516,36.479-56.285,50.215l3.816-6.515c0,0,19.924-16.27,26.721-44.615
		c6.799-28.35-1.838-38.55-3.869-40.98c-2.033-2.427-9.656-11.658-12.814,2.264c-3.154,13.919,7.051,28.042,7.051,28.042
		s2.424,6.79,1.336,15.804c-2.51,20.833-39.523,47.371-39.523,47.371s-8.57-7.23-22.165,4.447c0,0,14.802-46.831,12.708-74.489
		c-2.092-27.657-6.686-62.555-8.838-86.876C293.019,40.433,314.282,39.965,321.681,16.55c0.615-1.944-54.559,61.061-99.605,82.337
		c0,0-12.927-25.442-9.635-55.693C215.731,12.946,219.405,0,219.405,0s-27.341,61.452-45.772,78.184
		c-18.431,16.733-53.451,66.48-60.324,91.369c-6.874,24.888-7.657,59.566,7.881,88.381c23.725,44.001,65.3,67.33,65.3,67.33
		s-21.787-5.363-51.328,5.58c-39.749,14.727-62.25,48.865-96.732,55.561c0,0-16.335,4.418-38.304-9.547
		c-1.506-0.959,11.038,29.439,11.038,29.439s15.253,41.221,47.71,54.854c32.457,13.633,75.827,22.023,136.15-17.836
		C208.19,434.614,230.536,403.501,230.536,403.501z"/>
	<path fill="#FFFFFF" d="M281.703,312.384c0,0,26.407-66.521,17.722-121.393c-8.685-54.871-32.721-65.898-38.775-63.047
		c-6.056,2.853-14.784,7.803-7.526,28.718c7.437,21.43,21.432,47.113,28.264,79.594C287.369,264.69,281.703,312.384,281.703,312.384
		z"/>
	<path fill="#FFFFFF" d="M267.509,316.097c0,0,11.02-55.306-1.683-107.372c-12.703-52.063-48.617-77.785-48.617-77.785
		s-15.78-8.75-27.21-0.76c-6.024,4.21-2.329,17.725-2.329,17.725s12.829,28.236,44.108,58.17
		c14.582,13.957,32.526,57.069,33.034,80.169C265.321,309.345,267.509,316.097,267.509,316.097z"/>
	<path fill="#FFFFFF" d="M227.129,334.659c-11.67-5.184-65.461-40.028-86.354-62.681c-20.893-22.652-19.511-52.595-18.526-69.612
		c0.708-12.211,11.139-49.868,24.324-68.514c13.187-18.644,25.707-36.593,23.803-30.434c-1.902,6.159-0.126,25.156-0.126,25.156
		c-0.021,29.912,54.777,79.689,76.148,124.084c20.568,42.732,11.18,106.483,11.18,106.483S238.799,339.841,227.129,334.659z"/>
	<path fill="#FFFFFF" d="M142.602,416.735c2.322-8.277,8.459-17.182,8.459-17.182c-32.659-1.32-52.842-22.631-34.296-44.791
		c18.546-22.162,42.358-21.326,73.008-18.602c30.651,2.725,60.406,26.543,60.406,26.543s-16.097,9.871-25.295,24.348
		c-9.199,14.479-40.173,52.43-58.627,54.314C149.3,443.101,138.189,432.466,142.602,416.735z"/>
	
		<radialGradient id="XMLID_15_" cx="208.4023" cy="372.207" r="30.6857" gradientTransform="matrix(0.9555 0.295 -0.295 0.9555 91.7415 -48.011)" gradientUnits="userSpaceOnUse">
		<stop  offset="0" style="stop-color:#CCC0C8"/>
		<stop  offset="0.2249" style="stop-color:#CABEC7"/>
		<stop  offset="0.3882" style="stop-color:#C5B6C1"/>
		<stop  offset="0.5321" style="stop-color:#BCA8B7"/>
		<stop  offset="0.6646" style="stop-color:#B195AA"/>
		<stop  offset="0.7894" style="stop-color:#A37D98"/>
		<stop  offset="0.9069" style="stop-color:#946082"/>
		<stop  offset="1" style="stop-color:#864670"/>
	</radialGradient>
	<path fill="url(#XMLID_15_)" d="M222.972,361.942c0,0-39.576-21.182-68.201-10.055c-14.83,5.764-13.11,22.041-13.11,22.041
		s7.656,19.979,40.103-0.203C214.623,353.29,222.972,361.942,222.972,361.942z"/>
	
		<radialGradient id="XMLID_16_" cx="228.5786" cy="386.7725" r="20.6252" gradientTransform="matrix(0.9555 0.295 -0.295 0.9555 91.7415 -48.011)" gradientUnits="userSpaceOnUse">
		<stop  offset="0" style="stop-color:#CCC0C8"/>
		<stop  offset="0.2249" style="stop-color:#CABEC7"/>
		<stop  offset="0.3882" style="stop-color:#C5B6C1"/>
		<stop  offset="0.5321" style="stop-color:#BCA8B7"/>
		<stop  offset="0.6646" style="stop-color:#B195AA"/>
		<stop  offset="0.7894" style="stop-color:#A37D98"/>
		<stop  offset="0.9069" style="stop-color:#946082"/>
		<stop  offset="1" style="stop-color:#864670"/>
	</radialGradient>
	<path fill="url(#XMLID_16_)" d="M218.394,370.202c0,0-31.8,6.816-38.974,20.568c-7.176,13.756,2.654,22.182,8.601,20.207
		c8.773-2.914,18.472-25.559,18.472-25.559L218.394,370.202z"/>
	<path fill="#FFFFFF" d="M35.701,408.89c16.348,38.395,42.406,42.574,42.406,42.574s31.434,7.465,39.684-19.229
		c8.25-26.691-33.541-41.408-33.541-41.408s6.987,18.307-2.815,26.574C60.745,434.851,35.701,408.89,35.701,408.89z"/>
	<path fill="none" d="M140.819,212.157c0,0-15.211-52.074,11.579-60.756c20.25-6.565,23.386,12.402,23.386,12.402
		s-2.344,17.047-16.493,22.795C145.143,192.347,140.819,212.157,140.819,212.157z"/>
	
		<radialGradient id="XMLID_17_" cx="195.3066" cy="262.2275" r="65.3518" gradientTransform="matrix(0.9555 0.295 -0.295 0.9555 91.7415 -48.011)" gradientUnits="userSpaceOnUse">
		<stop  offset="0" style="stop-color:#CCC0C8"/>
		<stop  offset="0.2249" style="stop-color:#CABEC7"/>
		<stop  offset="0.3882" style="stop-color:#C5B6C1"/>
		<stop  offset="0.5321" style="stop-color:#BCA8B7"/>
		<stop  offset="0.6646" style="stop-color:#B195AA"/>
		<stop  offset="0.7894" style="stop-color:#A37D98"/>
		<stop  offset="0.9069" style="stop-color:#946082"/>
		<stop  offset="1" style="stop-color:#864670"/>
	</radialGradient>
	<path fill="url(#XMLID_17_)" d="M246.968,340.341c0,0-7.528-95.006-38.957-133.062c-20.505-24.83-33.771-21.011-44.449-11.938
		s-10.274,27.418-8.824,31.464c1.447,4.048-2.763-1.978-11.477,3.653c-8.714,5.63-7.795,16.486-6.346,20.533
		c1.448,4.047,8.616,20.883,33.407,35.295C195.111,300.694,239.12,323.519,246.968,340.341z"/>
	<path fill="#FFFFFF" d="M233.177,300.536c0,0-5.989-25.019-13.897-44.56c-7.907-19.542-26.67-38.163-38.132-33.832
		c-11.461,4.332-11.177,17.241-0.731,28.568C190.863,262.041,214.203,272.403,233.177,300.536z"/>
	<path fill="#FFFFFF" d="M226.471,304.763c0,0-23.848-33.466-37.408-31.807c-13.56,1.658-7.205,12.395-7.205,12.395
		s5.266,7.064,21.981,10.394C216.13,298.194,226.471,304.763,226.471,304.763z"/>
</g>
<linearGradient id="XMLID_18_" gradientUnits="userSpaceOnUse" x1="368.6924" y1="385.4219" x2="409.0635" y2="385.4219">
	<stop  offset="0" style="stop-color:#CCC0C8"/>
	<stop  offset="0.2249" style="stop-color:#CABEC7"/>
	<stop  offset="0.3882" style="stop-color:#C5B6C1"/>
	<stop  offset="0.5321" style="stop-color:#BCA8B7"/>
	<stop  offset="0.6646" style="stop-color:#B195AA"/>
	<stop  offset="0.7894" style="stop-color:#A37D98"/>
	<stop  offset="0.9069" style="stop-color:#946082"/>
	<stop  offset="1" style="stop-color:#864670"/>
</linearGradient>
<path fill="url(#XMLID_18_)" d="M405.615,383.278c-0.979-3.913-10.827-9.69-10.827-9.69s-28.879-15.015-25.876-13.17
	c3.003,1.843,3.908,14.396,4.673,27.947c0.046,0.811,0.209,1.186,0.355,2.007l7.094,3.913c-0.141-0.826-0.146-1.985-0.159-2.667
	c-0.178-8.987,4.364-15.283,4.364-15.283s7.412,3.274,13.171,11.507c3.361,4.806,12.427,29.189,10.347,21.116
	C405.859,397.709,406.594,387.191,405.615,383.278z"/>
<linearGradient id="XMLID_19_" gradientUnits="userSpaceOnUse" x1="-1655.4121" y1="-565.064" x2="-1617.8315" y2="-565.064" gradientTransform="matrix(0.3204 0.9473 -0.9473 0.3204 468.0098 2107.9424)">
	<stop  offset="0" style="stop-color:#CCC0C8"/>
	<stop  offset="0.2249" style="stop-color:#CABEC7"/>
	<stop  offset="0.3882" style="stop-color:#C5B6C1"/>
	<stop  offset="0.5321" style="stop-color:#BCA8B7"/>
	<stop  offset="0.6646" style="stop-color:#B195AA"/>
	<stop  offset="0.7894" style="stop-color:#A37D98"/>
	<stop  offset="0.9069" style="stop-color:#946082"/>
	<stop  offset="1" style="stop-color:#864670"/>
</linearGradient>
<path fill="url(#XMLID_19_)" d="M491.829,387.273c0.982-4.606,1.072-4.337,1.564-10.16s-2.441-24.495-2.441-24.495
	s1.928,2.409-12.12,11.057c-7.392,4.549-12.65,10.003-16.384,15.307l-0.182,7.824c5.528-6.549,13.56-12.881,23.78-12.493
	c0,0,0.067,9.726-5.179,21.389L491.829,387.273z"/>
<linearGradient id="XMLID_20_" gradientUnits="userSpaceOnUse" x1="-2623.3994" y1="-23.8428" x2="-2565.4097" y2="-23.8428" gradientTransform="matrix(-0.3079 0.9514 -0.9514 -0.3079 -289.0549 2932.9656)">
	<stop  offset="0" style="stop-color:#CCC0C8"/>
	<stop  offset="0.2249" style="stop-color:#CABEC7"/>
	<stop  offset="0.3882" style="stop-color:#C5B6C1"/>
	<stop  offset="0.5321" style="stop-color:#BCA8B7"/>
	<stop  offset="0.6646" style="stop-color:#B195AA"/>
	<stop  offset="0.7894" style="stop-color:#A37D98"/>
	<stop  offset="0.9069" style="stop-color:#946082"/>
	<stop  offset="1" style="stop-color:#864670"/>
</linearGradient>
<path fill="url(#XMLID_20_)" d="M526.979,482.41c-11.144,5.223-26.671,9.653-26.671,9.653c28.159,8.004,47.051-14.417,51.594-19.041
	c4.545-4.625,12.651-21.117,12.651-21.117s-0.315,5.627-16.323,1.645c-13.768-3.427-20.74,7.188-20.74,7.188
	s9.991-2.013,20.187,5.654C547.676,466.392,540.629,476.013,526.979,482.41z"/>
<linearGradient id="XMLID_21_" gradientUnits="userSpaceOnUse" x1="-3354.8218" y1="1588.7314" x2="-3316.5835" y2="1588.7314" gradientTransform="matrix(-0.8058 0.5922 0.5922 0.8058 -3304.6672 1175.7773)">
	<stop  offset="0" style="stop-color:#CCC0C8"/>
	<stop  offset="0.2249" style="stop-color:#CABEC7"/>
	<stop  offset="0.3882" style="stop-color:#C5B6C1"/>
	<stop  offset="0.5321" style="stop-color:#BCA8B7"/>
	<stop  offset="0.6646" style="stop-color:#B195AA"/>
	<stop  offset="0.7894" style="stop-color:#A37D98"/>
	<stop  offset="0.9069" style="stop-color:#946082"/>
	<stop  offset="1" style="stop-color:#864670"/>
</linearGradient>
<path fill="url(#XMLID_21_)" d="M359.681,497.522c-31.188,11.438-47.845-5.018-53.635-10.371
	c-4.188-3.872-19.785-25.846-17.449-23.207c2.335,2.64,14.908,1.754,28.334-0.233c18.211-2.695,26.589,11.069,26.589,11.069
	s-8.775-6.573-22.124-4.452c-8.877,1.41-14.297,6.942-14.297,6.942s4.181,5.32,13.612,10.981
	C333.464,495.906,359.681,497.522,359.681,497.522z"/>
<linearGradient id="XMLID_22_" gradientUnits="userSpaceOnUse" x1="405.5303" y1="373.501" x2="463.0776" y2="373.501">
	<stop  offset="0" style="stop-color:#CCC0C8"/>
	<stop  offset="0.2249" style="stop-color:#CABEC7"/>
	<stop  offset="0.3882" style="stop-color:#C5B6C1"/>
	<stop  offset="0.5321" style="stop-color:#BCA8B7"/>
	<stop  offset="0.6646" style="stop-color:#B195AA"/>
	<stop  offset="0.7894" style="stop-color:#A37D98"/>
	<stop  offset="0.9069" style="stop-color:#946082"/>
	<stop  offset="1" style="stop-color:#864670"/>
</linearGradient>
<path fill="url(#XMLID_22_)" d="M440.008,445.18c16.685-18.201,21.517-40.549,22.509-58.883c0.566-10.471,1.119-17.757-0.566-25.964
	c-3.672-17.888-29.045-64.303-29.045-57.91c0,23.004-11.363,19.887-22.017,46.876c-10.653,26.988-2.132,59.659-2.132,59.659
	s-2.23-45.113,32.672-66.052c3.551-2.131,5.682,11.364,8.522,31.96C454.212,407.537,440.008,445.18,440.008,445.18z"/>
<linearGradient id="XMLID_23_" gradientUnits="userSpaceOnUse" x1="449.2412" y1="426.71" x2="542.79" y2="426.71">
	<stop  offset="0" style="stop-color:#CCC0C8"/>
	<stop  offset="0.2249" style="stop-color:#CABEC7"/>
	<stop  offset="0.3882" style="stop-color:#C5B6C1"/>
	<stop  offset="0.5321" style="stop-color:#BCA8B7"/>
	<stop  offset="0.6646" style="stop-color:#B195AA"/>
	<stop  offset="0.7894" style="stop-color:#A37D98"/>
	<stop  offset="0.9069" style="stop-color:#946082"/>
	<stop  offset="1" style="stop-color:#864670"/>
</linearGradient>
<path fill="url(#XMLID_23_)" d="M466.286,503.418c71.023-20.596,73.555-72.418,75.285-88.068c1.555-14.07,1.42-72.443,0.709-64.631
	c-0.709,7.813-24.857,22.018-51.137,36.932c-26.277,14.915-41.902,61.79-41.902,61.79s27.385-36.115,42.613-44.034
	c17.756-9.232,34.801-6.392,34.801-6.392s-0.485,15.052-9.942,37.642C503.929,467.196,466.286,503.418,466.286,503.418z"/>
<radialGradient id="XMLID_24_" cx="538.8721" cy="606.7432" r="37.6685" gradientTransform="matrix(0.9264 0 0 1.1209 -77.7179 -173.7433)" gradientUnits="userSpaceOnUse">
	<stop  offset="0" style="stop-color:#864670"/>
	<stop  offset="0.2249" style="stop-color:#874771"/>
	<stop  offset="0.3882" style="stop-color:#8B4F76"/>
	<stop  offset="0.5321" style="stop-color:#925C80"/>
	<stop  offset="0.6646" style="stop-color:#9B6E8D"/>
	<stop  offset="0.7894" style="stop-color:#A9879F"/>
	<stop  offset="0.9069" style="stop-color:#BAA3B4"/>
	<stop  offset="1" style="stop-color:#CCC0C8"/>
</radialGradient>
<ellipse fill="url(#XMLID_24_)" cx="421.495" cy="506.357" rx="47.961" ry="14.069"/>
</svg>
